<?xml version="1.0" standalone="no"?>
<!DOCTYPE svg PUBLIC "-//W3C//DTD SVG 20010904//EN"
 "http://www.w3.org/TR/2001/REC-SVG-20010904/DTD/svg10.dtd">
<svg version="1.0" xmlns="http://www.w3.org/2000/svg"
 width="3147.000000pt" height="790.000000pt" viewBox="0 0 3147.000000 790.000000"
 preserveAspectRatio="xMidYMid meet">

<g transform="translate(0.000000,790.000000) scale(0.100000,-0.100000)"
fill="#000000" stroke="none">
<path d="M1225 7159 c-122 -20 -269 -99 -340 -182 -57 -66 -101 -145 -127
-227 l-23 -75 0 -2725 c0 -2617 1 -2727 18 -2785 58 -187 190 -329 373 -398
l59 -22 2298 -3 c1485 -1 2304 1 2315 8 14 8 14 10 2 11 -8 0 -4 5 10 9 l25 8
-24 1 -24 1 23 20 23 20 -24 0 c-19 0 -21 2 -9 10 13 9 13 10 0 11 -8 0 -4 5
10 9 l25 8 -24 1 -24 1 23 20 23 20 -24 0 c-19 0 -21 2 -9 10 13 9 13 10 0 11
-8 0 -4 5 10 9 l25 8 -24 1 -24 1 23 20 23 20 -24 0 c-19 0 -21 2 -9 10 13 9
13 10 0 11 -8 0 -4 5 10 9 l25 8 -24 1 -24 1 23 20 23 20 -24 0 c-19 0 -21 2
-9 10 13 9 13 10 0 11 -8 0 -4 5 10 9 l25 8 -24 1 -24 1 23 20 23 20 -24 0
c-19 0 -21 2 -9 10 13 9 13 10 0 11 -8 0 -4 5 10 9 l25 8 -24 1 -24 1 23 20
23 20 -24 0 c-19 0 -21 2 -9 10 13 9 13 10 0 11 -8 0 -4 5 10 9 l25 8 -24 1
-24 1 23 20 23 20 -24 0 c-19 0 -21 2 -9 10 13 9 13 10 0 11 -8 0 -4 5 10 9
l25 8 -24 1 -24 1 23 20 23 20 -24 0 c-19 0 -21 2 -9 10 13 9 13 10 0 11 -8 0
-4 5 10 9 l25 8 -24 1 -24 1 23 20 23 20 -24 0 c-19 0 -21 2 -9 10 13 9 13 10
0 11 -8 0 -4 5 10 9 l25 8 -24 1 -24 1 23 20 23 20 -24 0 c-19 0 -21 2 -9 10
13 9 13 10 0 11 -8 0 -4 5 10 9 l25 8 -24 1 -24 1 23 20 23 20 -24 0 c-19 0
-21 2 -9 10 13 9 13 10 0 11 -8 0 -4 5 10 9 l25 8 -24 1 -24 1 23 20 23 20
-24 0 c-19 0 -21 2 -9 10 13 9 13 10 0 11 -8 0 -4 5 10 9 l25 8 -24 1 -24 1
23 20 23 20 -24 0 c-19 0 -21 2 -9 10 13 9 13 10 0 11 -8 0 -4 5 10 9 l25 8
-24 1 -24 1 23 20 23 20 -24 0 c-19 0 -21 2 -9 10 13 9 13 10 0 11 -8 0 -4 5
10 9 l25 8 -24 1 -24 1 23 20 23 20 -24 0 c-19 0 -21 2 -9 10 13 9 13 10 0 11
-8 0 -4 5 10 9 l25 8 -24 1 -24 1 23 20 23 20 -24 0 c-19 0 -21 2 -9 10 13 9
13 10 0 11 -8 0 -4 5 10 9 l25 8 -24 1 -24 1 23 20 23 20 -24 0 c-19 0 -21 2
-9 10 13 9 13 10 0 11 -8 0 -4 5 10 9 l25 8 -24 1 -24 1 23 20 23 20 -24 0
c-19 0 -21 2 -9 10 13 9 13 10 0 11 -8 0 -4 5 10 9 l25 8 -24 1 -24 1 23 20
23 20 -24 0 c-19 0 -21 2 -9 10 13 9 13 10 0 11 -8 0 -4 5 10 9 l25 8 -24 1
-24 1 23 20 23 20 -24 0 c-19 0 -21 2 -9 10 13 9 13 10 0 11 -8 0 -4 5 10 9
l25 8 -24 1 -24 1 23 20 23 20 -24 0 c-19 0 -21 2 -9 10 13 9 13 10 0 11 -8 0
-4 5 10 9 l25 8 -24 1 -24 1 23 20 23 20 -24 0 c-19 0 -21 2 -9 10 13 9 13 10
0 11 -8 0 -4 5 10 9 l25 8 -24 1 -24 1 23 20 23 20 -24 0 c-19 0 -21 2 -9 10
13 9 13 10 0 11 -8 0 -4 5 10 9 l25 8 -24 1 -24 1 23 20 23 20 -24 0 c-19 0
-21 2 -9 10 13 9 13 10 0 11 -8 0 -4 5 10 9 l25 8 -24 1 -24 1 23 20 23 20
-24 0 c-17 0 -20 3 -10 9 11 7 11 9 0 14 -8 3 -3 6 11 7 l25 2 -25 8 c-14 4
-19 8 -12 9 6 1 12 8 12 16 0 8 -6 15 -12 16 -7 1 -2 5 12 9 l25 8 -24 1 -24
1 23 20 23 20 -24 0 c-19 0 -21 2 -9 10 13 9 13 10 0 11 -8 0 -4 5 10 9 l25 8
-24 1 -24 1 23 20 23 20 -24 0 c-19 0 -21 2 -9 10 13 9 13 10 0 11 -8 0 -4 5
10 9 l25 8 -24 1 -24 1 23 20 23 20 -24 0 c-19 0 -21 2 -9 10 13 9 13 10 0 11
-8 0 -4 5 10 9 l25 8 -24 1 -24 1 23 20 23 20 -24 0 c-19 0 -21 2 -9 10 13 9
13 10 0 11 -8 0 -4 5 10 9 l25 8 -24 1 -24 1 23 20 23 20 -24 0 c-19 0 -21 2
-9 10 13 9 13 10 0 11 -8 0 -4 5 10 9 l25 8 -24 1 -24 1 23 20 23 20 -24 0
c-19 0 -21 2 -9 10 13 9 13 10 0 11 -8 0 -4 5 10 9 l25 8 -24 1 -24 1 23 20
23 20 -24 0 c-19 0 -21 2 -9 10 13 9 13 10 0 11 -8 0 -4 5 10 9 l25 8 -24 1
-24 1 23 20 23 20 -24 0 c-19 0 -21 2 -9 10 13 9 13 10 0 11 -8 0 -4 5 10 9
l25 8 -24 1 -24 1 23 20 23 20 -24 0 c-19 0 -21 2 -9 10 13 9 13 10 0 11 -8 0
-4 5 10 9 l25 8 -24 1 -24 1 23 20 23 20 -24 0 c-19 0 -21 2 -9 10 13 9 13 10
0 11 -8 0 -4 5 10 9 l25 8 -24 1 -24 1 23 20 23 20 -24 0 c-19 0 -21 2 -9 10
13 9 13 10 0 11 -8 0 -4 5 10 9 l25 8 -24 1 -24 1 23 20 23 20 -24 0 c-19 0
-21 2 -9 10 13 9 13 10 0 11 -8 0 -4 5 10 9 l25 8 -24 1 -24 1 23 20 23 20
-24 0 c-19 0 -21 2 -9 10 13 9 13 10 0 11 -8 0 -4 5 10 9 l25 8 -24 1 -24 1
23 20 23 20 -24 0 c-19 0 -21 2 -9 10 13 9 13 10 0 11 -8 0 -4 5 10 9 l25 8
-24 1 -24 1 23 20 23 20 -24 0 c-19 0 -21 2 -9 10 13 9 13 10 0 11 -8 0 -4 5
10 9 l25 8 -24 1 -24 1 23 20 23 20 -24 0 c-19 0 -21 2 -9 10 13 9 13 10 0 11
-8 0 -4 5 10 9 l25 8 -24 1 -24 1 23 20 23 20 -24 0 c-19 0 -21 2 -9 10 13 9
13 10 0 11 -8 0 -4 5 10 9 l25 8 -24 1 -24 1 23 20 23 20 -24 0 c-19 0 -21 2
-9 10 13 9 13 10 0 11 -8 0 -4 5 10 9 l25 8 -24 1 -24 1 23 20 23 20 -24 0
c-19 0 -21 2 -9 10 13 9 13 10 0 11 -8 0 -4 5 10 9 l25 8 -24 1 -24 1 23 20
23 20 -24 0 c-19 0 -21 2 -9 10 13 9 13 10 0 11 -8 0 -4 5 10 9 l25 8 -24 1
-24 1 23 20 23 20 -24 0 c-19 0 -21 2 -9 10 13 9 13 10 0 11 -8 0 -4 5 10 9
l25 8 -24 1 -24 1 23 20 23 20 -24 0 c-19 0 -21 2 -9 10 13 9 13 10 0 11 -8 0
-4 5 10 9 l25 8 -24 1 -24 1 23 20 23 20 -24 0 c-19 0 -21 2 -9 10 13 9 13 10
0 11 -8 0 -4 5 10 9 l25 8 -24 1 -24 1 23 20 23 20 -24 0 c-19 0 -21 2 -9 10
13 9 13 10 0 11 -8 0 -4 5 10 9 l25 8 -24 1 -24 1 23 20 23 20 -24 0 c-19 0
-21 2 -9 10 13 9 13 10 0 11 -8 0 -4 5 10 9 l25 8 -24 1 -24 1 23 20 23 20
-24 0 c-19 0 -21 2 -9 10 13 9 13 10 0 11 -8 0 -4 5 10 9 l25 8 -24 1 -24 1
23 20 23 20 -24 0 c-19 0 -21 2 -9 10 13 9 13 10 0 11 -8 0 -4 5 10 9 l25 8
-24 1 -24 1 23 20 23 20 -24 0 c-19 0 -21 2 -9 10 13 9 13 10 0 11 -8 0 -4 5
10 9 l25 8 -24 1 -24 1 23 20 23 20 -24 0 c-19 0 -21 2 -9 10 13 9 13 10 0 11
-8 0 -4 5 10 9 l25 8 -24 1 -24 1 23 20 23 20 -24 0 c-19 0 -21 2 -9 10 13 9
13 10 0 11 -8 0 -4 5 10 9 l25 8 -24 1 -24 1 23 20 23 20 -24 0 c-17 0 -20 3
-10 9 11 7 11 9 0 14 -8 3 -3 6 11 7 l25 2 -25 8 c-14 4 -19 8 -12 9 6 1 12 8
12 16 0 8 -6 15 -12 16 -7 1 -2 5 12 9 l25 8 -24 1 -24 1 23 20 23 20 -24 0
c-19 0 -21 2 -9 10 13 9 13 10 0 11 -8 0 -4 5 10 9 l25 8 -24 1 -24 1 23 20
23 20 -24 0 c-19 0 -21 2 -9 10 13 9 13 10 0 11 -8 0 -4 5 10 9 l25 8 -24 1
-24 1 23 20 23 20 -24 0 c-19 0 -21 2 -9 10 13 9 13 10 0 11 -8 0 -4 5 10 9
l25 8 -24 1 -24 1 23 20 23 20 -24 0 c-19 0 -21 2 -9 10 13 9 13 10 0 11 -8 0
-4 5 10 9 l25 8 -24 1 -24 1 23 20 23 20 -24 0 c-19 0 -21 2 -9 10 13 9 13 10
0 11 -8 0 -4 5 10 9 l25 8 -24 1 -24 1 23 20 23 20 -24 0 c-19 0 -21 2 -9 10
13 9 13 10 0 11 -8 0 -4 5 10 9 l25 8 -24 1 -24 1 23 20 23 20 -24 0 c-19 0
-21 2 -9 10 13 9 13 10 0 11 -8 0 -4 5 10 9 l25 8 -24 1 -24 1 23 20 23 20
-24 0 c-19 0 -21 2 -9 10 13 9 13 10 0 11 -8 0 -4 5 10 9 l25 8 -24 1 -24 1
23 20 23 20 -24 0 c-19 0 -21 2 -9 10 13 9 13 10 0 11 -8 0 -4 5 10 9 l25 8
-24 1 -24 1 23 20 23 20 -24 0 c-19 0 -21 2 -9 10 13 9 13 10 0 11 -8 0 -4 5
10 9 l25 8 -24 1 -24 1 23 20 23 20 -24 0 c-19 0 -21 2 -9 10 13 9 13 10 0 11
-8 0 -4 5 10 9 l25 8 -24 1 -24 1 23 20 23 20 -24 0 c-19 0 -21 2 -9 10 13 9
13 10 0 11 -8 0 -4 5 10 9 l25 8 -24 1 -24 1 23 20 23 20 -24 0 c-19 0 -21 2
-9 10 13 9 13 10 0 11 -8 0 -4 5 10 9 l25 8 -24 1 -24 1 23 20 23 20 -24 0
c-19 0 -21 2 -9 10 13 9 13 10 0 11 -8 0 -4 5 10 9 l25 8 -24 1 -24 1 23 20
23 20 -24 0 c-19 0 -21 2 -9 10 13 9 13 10 0 11 -8 0 -4 5 10 9 l25 8 -24 1
-24 1 23 20 23 20 -24 0 c-19 0 -21 2 -9 10 13 9 13 10 0 11 -8 0 -4 5 10 9
l25 8 -24 1 -24 1 23 20 23 20 -24 0 c-19 0 -21 2 -9 10 13 9 13 10 0 11 -8 0
-4 5 10 9 l25 8 -24 1 -24 1 23 20 23 20 -24 0 c-19 0 -21 2 -9 10 13 9 13 10
0 11 -8 0 -4 5 10 9 l25 8 -24 1 -24 1 23 20 23 20 -24 0 c-19 0 -21 2 -9 10
13 9 13 10 0 11 -8 0 -4 5 10 9 l25 8 -24 1 -24 1 23 20 23 20 -24 0 c-19 0
-21 2 -9 10 13 9 13 10 0 11 -8 0 -4 5 10 9 l25 8 -24 1 -24 1 23 20 23 20
-24 0 c-19 0 -21 2 -9 10 13 9 13 10 0 11 -8 0 -4 5 10 9 l25 8 -24 1 -24 1
23 20 23 20 -24 0 c-19 0 -21 2 -9 10 13 9 13 10 0 11 -8 0 -4 5 10 9 l25 8
-25 1 c-20 1 -22 3 -10 11 17 11 -610 15 -2945 16 -869 1 -1602 -2 -1630 -7z
m3544 -1109 c305 -6 557 -13 559 -15 12 -11 29 -515 48 -1357 l6 -288 -30 0
c-128 0 -561 -77 -762 -135 -576 -168 -973 -447 -1168 -821 -59 -115 -116
-286 -115 -352 1 -142 150 -234 280 -171 52 25 82 73 113 179 79 272 297 505
618 662 254 123 572 202 1023 253 l47 5 7 -447 c8 -479 -7 -1390 -26 -1548
-13 -114 -24 -137 -73 -153 -124 -40 -582 -62 -1311 -63 -683 0 -1363 24
-1545 56 -132 22 -138 25 -149 58 -39 119 -75 701 -86 1357 -3 184 -7 426 -10
536 l-5 202 122 127 c190 198 360 319 591 423 208 94 405 142 669 164 162 13
197 28 242 101 62 101 30 216 -77 271 l-57 29 -150 -11 c-477 -37 -910 -208
-1270 -500 l-55 -45 -3 99 c-5 144 16 729 33 939 20 250 38 363 67 439 l12 29
950 -6 c523 -4 1200 -12 1505 -17z"/>
<path d="M19781 5260 c-157 -22 -291 -88 -396 -194 -75 -76 -115 -145 -140
-242 -37 -142 0 -320 90 -443 86 -116 209 -192 455 -281 280 -100 373 -161
400 -262 29 -106 -14 -201 -115 -253 -55 -28 -66 -30 -169 -30 -92 0 -121 4
-169 24 -71 28 -164 111 -214 192 -20 33 -39 59 -44 59 -4 0 -78 -37 -163 -82
l-154 -82 23 -52 c72 -163 222 -307 396 -380 365 -154 844 -15 993 287 124
250 62 517 -159 687 -91 69 -270 157 -465 228 -85 30 -168 64 -185 74 -165
102 -149 301 30 371 17 6 64 11 106 11 130 -1 238 -58 325 -171 21 -27 43 -50
47 -51 6 0 290 163 306 176 12 10 -93 145 -164 212 -137 130 -291 196 -483
206 -48 3 -116 1 -151 -4z"/>
<path d="M16610 4230 l0 -1020 205 0 205 0 0 238 0 238 63 62 63 62 257 -300
258 -300 235 0 c192 0 234 2 227 13 -4 7 -168 201 -363 431 -195 230 -355 421
-355 426 0 4 126 140 280 301 154 161 286 301 293 311 13 17 4 18 -230 18
l-243 0 -234 -253 c-128 -138 -238 -253 -242 -255 -5 -2 -9 229 -9 522 l0 526
-205 0 -205 0 0 -1020z"/>
<path d="M27260 5075 l0 -175 205 0 205 0 0 175 0 175 -205 0 -205 0 0 -175z"/>
<path d="M8390 5050 l0 -180 439 -2 440 -3 -445 -790 c-245 -434 -454 -807
-465 -827 l-19 -38 805 0 805 0 0 180 0 180 -470 0 c-258 0 -470 2 -470 5 0 4
838 1493 907 1613 l25 42 -776 0 -776 0 0 -180z"/>
<path d="M28120 4885 l0 -175 -105 0 -105 0 0 -170 0 -170 105 0 105 0 0 -387
c0 -214 5 -415 10 -448 29 -180 121 -290 270 -326 102 -24 333 -12 423 23 l27
10 0 173 0 172 -52 -13 c-65 -17 -175 -18 -208 -1 -14 7 -33 28 -42 47 -16 31
-18 72 -18 393 l0 357 160 0 160 0 0 170 0 170 -160 0 -160 0 0 175 0 175
-205 0 -205 0 0 -175z"/>
<path d="M15335 4723 c-152 -32 -265 -94 -381 -208 -67 -66 -89 -97 -127 -175
-59 -119 -77 -188 -84 -316 -10 -174 29 -354 104 -484 21 -36 74 -101 118
-145 65 -66 98 -89 175 -128 122 -60 207 -80 340 -81 82 -1 120 4 176 21 86
27 185 91 219 141 l25 37 0 -88 0 -87 205 0 205 0 0 750 0 750 -205 0 -205 0
0 -78 0 -78 -49 47 c-120 115 -322 164 -516 122z m365 -385 c121 -56 189 -153
212 -300 30 -200 -50 -377 -208 -454 -54 -26 -68 -29 -164 -29 -93 0 -112 3
-162 27 -83 38 -126 75 -169 141 -81 124 -90 306 -23 439 71 141 197 211 369
205 72 -2 101 -8 145 -29z"/>
<path d="M21490 4726 c-316 -68 -549 -277 -627 -566 -27 -99 -24 -310 5 -413
76 -266 282 -461 567 -538 105 -28 332 -31 446 -6 137 31 290 108 358 181 l25
26 -60 61 c-32 33 -85 83 -116 111 l-58 50 -42 -25 c-154 -90 -393 -101 -541
-26 -78 40 -156 133 -182 217 l-6 22 544 0 544 0 7 38 c9 57 7 189 -4 262 -27
167 -88 290 -204 406 -66 66 -98 89 -176 127 -52 26 -122 54 -155 63 -84 22
-245 27 -325 10z m212 -347 c132 -28 218 -101 273 -231 l15 -38 -361 0 -361 0
7 27 c19 77 96 163 186 208 83 42 154 52 241 34z"/>
<path d="M23250 4734 c-221 -43 -397 -141 -522 -292 -54 -66 -115 -188 -139
-279 -26 -98 -27 -277 -3 -385 25 -116 93 -246 172 -329 149 -158 336 -244
557 -256 239 -13 427 58 578 217 67 70 106 125 96 134 -2 2 -73 36 -158 75
l-153 71 -45 -39 c-149 -131 -388 -131 -537 0 -91 80 -130 187 -124 339 3 84
8 105 36 162 38 79 110 149 190 186 51 24 69 27 167 27 98 0 116 -3 167 -27
31 -14 76 -45 101 -67 l44 -41 154 71 c85 39 156 73 158 75 10 9 -68 110 -132
171 -129 122 -277 181 -472 188 -60 2 -121 1 -135 -1z"/>
<path d="M12658 4711 c-107 -35 -214 -120 -269 -216 l-29 -50 0 133 0 132
-205 0 -205 0 0 -750 0 -750 205 0 204 0 3 448 3 447 28 60 c46 99 140 179
234 199 178 39 326 -49 377 -223 14 -46 16 -122 16 -493 l0 -438 205 0 204 0
3 438 3 437 33 67 c37 77 109 156 169 187 79 40 219 43 297 6 82 -39 138 -129
156 -250 5 -39 10 -253 10 -477 l0 -408 205 0 205 0 0 428 c0 546 -10 634 -87
792 -45 94 -142 194 -229 238 -101 51 -172 65 -309 60 -104 -4 -130 -9 -197
-35 -130 -51 -241 -143 -305 -251 l-25 -42 -37 57 c-47 72 -139 159 -211 200
-124 71 -325 94 -452 54z"/>
<path d="M26760 4716 c-160 -45 -280 -153 -345 -312 l-25 -59 0 183 0 182
-205 0 -205 0 0 -750 0 -750 205 0 205 0 0 338 c0 271 3 349 15 397 64 244
291 407 550 393 l65 -3 0 198 0 197 -107 -1 c-60 0 -128 -6 -153 -13z"/>
<path d="M29033 4703 c2 -10 147 -336 321 -725 174 -388 316 -710 316 -715 0
-5 -61 -142 -135 -304 l-134 -294 201 -3 c111 -1 205 1 209 5 5 6 873 1938
916 2041 4 10 -37 12 -202 10 l-208 -3 -218 -499 c-120 -274 -220 -500 -222
-502 -2 -2 -102 224 -222 501 l-219 505 -204 0 c-190 0 -204 -1 -199 -17z"/>
<path d="M10192 4188 c4 -500 5 -526 25 -590 49 -156 151 -286 268 -346 117
-58 281 -78 400 -47 120 32 248 122 314 222 l31 46 0 -131 0 -132 210 0 210 0
0 750 0 750 -210 0 -210 0 0 -433 0 -433 -26 -53 c-38 -75 -122 -162 -196
-201 -48 -26 -77 -34 -132 -38 -129 -8 -202 30 -247 130 l-24 53 -3 488 -3
487 -205 0 -205 0 3 -522z"/>
<path d="M24213 4218 c6 -555 9 -584 77 -726 91 -191 274 -302 497 -302 171 0
348 95 442 237 l31 46 0 -131 0 -132 210 0 210 0 0 750 0 750 -210 0 -210 0 0
-433 0 -433 -26 -53 c-38 -75 -122 -162 -196 -201 -48 -26 -77 -34 -132 -38
-129 -8 -202 30 -247 130 l-24 53 -3 488 -3 487 -211 0 -210 0 5 -492z"/>
<path d="M27260 3960 l0 -750 205 0 205 0 0 750 0 750 -205 0 -205 0 0 -750z"/>
</g>
</svg>
